<?xml version="1.0" standalone="no"?>
<!DOCTYPE svg PUBLIC "-//W3C//DTD SVG 20010904//EN"
 "http://www.w3.org/TR/2001/REC-SVG-20010904/DTD/svg10.dtd">
<svg version="1.0" xmlns="http://www.w3.org/2000/svg"
 width="1312.000000pt" height="630.000000pt" viewBox="0 0 1312.000000 630.000000"
 preserveAspectRatio="xMidYMid meet">

<g transform="translate(0.000000,630.000000) scale(0.100000,-0.100000)"
fill="#000000" stroke="none">
<path d="M1437 6276 l-149 -21 1 -160 c1 -88 4 -169 6 -180 2 -11 7 -166 10
-345 4 -179 8 -336 10 -350 2 -14 4 -28 4 -32 2 -12 110 57 111 70 0 9 -7 11
-22 6 -29 -8 -26 -6 52 52 36 26 97 63 135 82 39 19 97 60 131 91 82 76 154
131 171 131 8 0 35 -9 60 -21 l47 -21 70 32 c189 87 346 138 467 155 l46 6 2
62 c4 156 26 358 46 440 l7 27 -528 -1 c-484 -1 -542 -3 -677 -23z"/>
<path d="M2669 6293 c-1 -5 -3 -36 -5 -70 -1 -34 -8 -148 -14 -254 -12 -207
-12 -209 38 -209 34 0 158 -43 295 -102 l119 -50 73 13 73 13 6 50 c3 28 13
111 22 185 23 196 57 268 176 374 l63 56 -422 1 c-233 0 -424 -3 -424 -7z"/>
<path d="M3528 6281 c-11 -14 -11 -14 3 -6 8 6 7 3 -3 -5 -10 -8 -53 -47 -94
-87 -59 -56 -74 -77 -69 -92 4 -13 0 -23 -11 -29 -15 -8 -21 -42 -35 -193 -25
-259 -33 -229 63 -261 46 -15 84 -26 85 -24 2 1 9 91 17 199 19 256 29 280
194 459 l55 59 -96 -2 c-76 -1 -99 -5 -109 -18z m-120 -146 c-17 -25 -34 -43
-36 -40 -4 4 56 85 64 85 2 0 -11 -20 -28 -45z"/>
<path d="M3686 6208 c-50 -54 -97 -117 -115 -153 -28 -56 -30 -69 -36 -210 -3
-82 -8 -183 -11 -222 -6 -59 -4 -73 7 -73 8 0 68 -25 134 -55 116 -54 149 -62
189 -46 19 7 20 17 18 137 -3 158 11 290 36 347 10 23 70 101 133 173 63 72
122 146 132 163 l18 31 -210 0 -209 0 -86 -92z m94 78 c0 -2 -8 -10 -17 -17
-16 -13 -17 -12 -4 4 13 16 21 21 21 13z"/>
<path d="M4220 6259 c-12 -22 -65 -89 -120 -148 -54 -58 -107 -122 -119 -141
-55 -94 -53 -81 -55 -304 l-1 -211 38 -3 37 -3 0 88 c1 145 11 235 33 288 12
27 69 110 128 183 61 77 122 165 143 208 20 41 36 76 36 79 0 3 -22 5 -50 5
-48 0 -50 -1 -70 -41z"/>
<path d="M4367 6228 c-20 -40 -85 -134 -144 -208 -155 -193 -161 -208 -169
-416 l-7 -169 66 -18 c36 -9 68 -17 71 -17 3 0 6 75 6 168 0 164 1 168 29 228
16 34 56 104 88 155 88 140 119 197 142 266 27 81 27 83 -12 83 -31 0 -36 -4
-70 -72z"/>
<path d="M4540 6281 c0 -24 -52 -129 -129 -259 -34 -57 -61 -107 -61 -112 0
-5 -4 -10 -8 -12 -5 -1 -27 -34 -50 -72 l-42 -70 0 -187 0 -187 30 -7 c16 -4
34 -4 40 0 6 4 10 61 10 143 0 75 5 155 10 177 5 22 48 106 96 185 107 179
160 283 173 341 18 75 16 79 -29 79 -33 0 -40 -4 -40 -19z"/>
<path d="M5096 6291 c-10 -16 38 -21 54 -6 13 13 10 15 -17 15 -18 0 -34 -4
-37 -9z"/>
<path d="M5367 6276 c16 -21 24 -24 65 -19 43 5 48 4 59 -20 9 -20 8 -31 -4
-56 -18 -37 -14 -38 32 -10 40 24 125 24 155 -1 10 -8 19 -13 21 -10 2 3 17
-8 35 -23 17 -16 34 -26 37 -23 3 3 11 -1 18 -8 9 -8 29 -12 57 -9 66 7 95 -9
108 -57 13 -50 31 -58 75 -35 31 18 35 18 59 2 14 -10 26 -22 26 -28 0 -7 10
-9 25 -5 33 8 61 -7 79 -43 15 -27 17 -28 54 -18 49 13 70 5 86 -34 8 -19 16
-27 20 -20 4 6 20 11 36 11 32 0 54 -24 65 -72 4 -16 10 -28 14 -29 9 -1 49
-9 58 -11 4 -1 25 4 46 11 51 17 117 7 187 -29 30 -16 69 -34 87 -40 23 -9 38
-25 53 -57 17 -35 24 -43 38 -37 27 12 71 8 90 -8 9 -8 30 -15 47 -16 16 -1
33 -9 37 -16 6 -10 19 -13 43 -9 23 4 43 0 59 -11 14 -9 36 -16 48 -17 46 -1
100 -34 117 -69 16 -34 18 -35 67 -32 46 3 53 1 77 -27 21 -26 30 -29 49 -22
13 5 25 9 28 10 3 1 49 -20 103 -47 54 -28 106 -48 116 -45 24 6 91 -23 108
-47 8 -11 22 -20 32 -20 11 0 21 -9 24 -21 5 -18 11 -21 36 -16 17 4 33 2 37
-4 3 -6 17 -8 30 -5 26 7 128 -35 141 -58 10 -17 63 -51 63 -41 0 5 8 0 19 -9
13 -12 27 -15 46 -10 18 5 30 2 36 -7 5 -8 19 -14 31 -14 14 0 30 -11 43 -32
11 -18 29 -35 40 -39 11 -4 26 -15 33 -25 10 -14 44 -28 82 -34 3 0 10 -3 15
-6 6 -4 26 -10 45 -14 19 -4 48 -18 65 -30 45 -34 80 -36 139 -9 28 13 45 24
38 24 -7 0 -10 5 -7 10 3 6 -1 10 -9 10 -9 0 -16 7 -16 16 0 23 -57 92 -83
100 -12 4 -24 10 -27 14 -7 9 -140 71 -164 75 -10 3 -23 8 -30 13 -6 5 -27 15
-46 22 -19 7 -66 28 -105 46 -38 18 -110 49 -160 69 -49 21 -96 42 -104 49 -8
6 -15 10 -15 8 -2 -5 -43 12 -183 77 -72 33 -138 61 -145 61 -8 0 -18 4 -24 9
-5 5 -63 33 -129 61 -66 29 -138 60 -160 70 -22 10 -130 57 -240 104 -110 48
-220 96 -245 107 -25 12 -117 53 -205 91 -88 39 -185 81 -215 95 -30 14 -68
31 -85 38 -16 7 -61 28 -100 45 -38 18 -88 39 -110 48 -22 8 -44 18 -50 22 -5
4 -89 42 -186 84 l-177 76 -286 0 -287 0 18 -24z"/>
<path d="M4696 6278 c-3 -7 -7 -26 -10 -43 -6 -35 -98 -209 -202 -383 -45 -74
-78 -142 -85 -172 -17 -79 -6 -92 20 -22 18 49 49 92 137 195 121 141 158 199
180 281 18 66 19 115 2 98 -25 -25 -39 -14 -32 23 6 33 -2 50 -10 23z"/>
<path d="M4826 6202 c-9 -17 -16 -40 -16 -50 0 -50 -82 -180 -188 -299 -147
-165 -158 -189 -171 -377 -7 -82 -8 -153 -4 -156 8 -7 106 -40 117 -40 3 0 6
44 6 98 1 213 23 271 170 447 124 148 174 241 175 325 0 32 -3 61 -6 64 -3 3
-19 9 -36 12 -28 5 -33 2 -47 -24z"/>
<path d="M5400 6165 c0 -8 6 -15 13 -15 8 0 14 7 14 15 0 8 -6 15 -14 15 -7 0
-13 -7 -13 -15z"/>
<path d="M4970 6070 c-30 -89 -70 -150 -185 -285 -47 -55 -97 -123 -111 -151
-24 -48 -24 -56 -22 -225 3 -169 4 -174 24 -177 21 -3 22 1 27 160 2 90 10
177 16 193 7 17 28 40 47 52 l34 22 -4 -22 c-14 -69 -17 -115 -17 -250 1 -82
4 -153 7 -158 2 -5 17 -4 31 2 19 7 36 6 63 -5 l38 -15 6 37 c3 20 6 70 6 110
0 113 25 185 83 246 27 28 61 69 75 91 15 22 39 55 54 73 15 18 28 42 28 54 0
12 11 49 24 82 27 70 43 166 28 166 -6 0 -22 -4 -36 -10 -22 -8 -28 -5 -46 20
-35 49 -57 40 -77 -31 -10 -33 -30 -75 -44 -92 -25 -30 -26 -30 -37 -11 -8 16
-7 35 4 78 8 32 14 72 12 89 -3 28 -6 22 -28 -43z m16 -177 c-18 -36 -72 -87
-63 -60 4 10 7 22 7 26 0 16 42 61 56 61 13 0 13 -4 0 -27z"/>
<path d="M5667 6099 c7 -7 15 -10 18 -7 3 3 -2 9 -12 12 -14 6 -15 5 -6 -5z"/>
<path d="M5332 6002 c-13 -8 -37 -45 -53 -81 -16 -35 -47 -87 -68 -115 -21
-28 -49 -67 -62 -87 -13 -20 -40 -61 -60 -90 -63 -95 -79 -155 -86 -314 -6
-141 -6 -142 18 -159 l24 -16 7 144 c6 143 26 244 50 263 20 15 57 22 64 12 3
-5 -1 -31 -10 -57 -11 -33 -16 -100 -18 -232 l-3 -185 38 -3 37 -3 1 118 c2
200 6 235 38 305 16 36 51 90 79 120 121 134 162 212 162 311 0 30 -4 37 -19
37 -14 0 -24 -16 -41 -60 -24 -65 -77 -140 -98 -140 -7 0 -11 -4 -8 -8 3 -5
-1 -9 -8 -9 -11 0 -11 5 0 26 8 14 14 36 14 48 0 12 7 49 16 82 8 34 14 72 12
85 -3 22 -4 23 -26 8z"/>
<path d="M5574 5875 c-7 -19 -14 -40 -14 -48 0 -21 -51 -96 -129 -187 -40 -47
-85 -112 -101 -145 -29 -59 -30 -62 -32 -255 l-3 -194 70 -19 c39 -11 102 -29
142 -42 39 -13 74 -21 77 -17 3 3 6 82 6 175 0 203 -1 201 133 369 50 62 103
141 119 175 28 63 37 122 18 124 -5 1 -19 3 -30 4 -11 1 -22 4 -25 5 -3 1 -8
3 -12 4 -5 1 -13 5 -20 9 -12 8 -43 -1 -43 -12 0 -14 -77 -50 -98 -46 -41 8
-42 16 -7 49 19 18 35 41 35 51 0 10 -3 16 -6 12 -4 -3 -13 0 -21 8 -23 24
-43 17 -59 -20z"/>
<path d="M9244 5864 c-11 -5 -10 -87 2 -105 8 -14 31 1 59 37 l26 33 -21 21
c-19 19 -42 24 -66 14z"/>
<path d="M6027 5670 c-23 -66 -59 -117 -154 -224 -137 -154 -152 -191 -168
-397 l-7 -86 63 -16 c35 -9 66 -14 69 -11 3 3 6 63 7 132 2 70 8 141 15 157 6
17 52 97 101 179 112 185 157 316 109 316 -12 0 -23 -16 -35 -50z"/>
<path d="M9260 5630 c-7 -59 -7 -126 0 -145 7 -19 15 -22 54 -20 25 1 46 -2
46 -6 0 -3 13 -12 30 -19 21 -9 33 -23 40 -49 9 -32 7 -43 -19 -94 -16 -31
-26 -55 -20 -52 5 3 6 -1 3 -9 -3 -9 -11 -13 -18 -9 -6 4 -5 0 2 -9 25 -31 98
-42 147 -24 20 7 20 7 1 -8 -25 -20 -17 -29 9 -10 19 14 20 27 21 192 0 173
-5 219 -29 234 -19 12 -77 9 -77 -4 0 -6 -2 -9 -5 -6 -4 3 -24 2 -45 -3 -26
-6 -48 -5 -67 3 -15 6 -31 11 -35 10 -5 -1 -8 5 -8 14 0 8 -4 13 -9 10 -5 -4
-12 0 -14 6 -4 9 -6 9 -7 -2z"/>
<path d="M6166 5606 c-4 -16 -47 -96 -97 -177 -49 -81 -89 -154 -89 -161 0 -8
10 -14 21 -15 12 -1 23 -4 26 -6 2 -3 0 -40 -6 -82 -6 -42 -10 -113 -10 -158
l2 -82 7 80 c13 136 39 189 156 323 89 101 122 154 144 235 23 86 -19 72 -55
-18 -25 -59 -68 -114 -88 -111 -42 6 -47 36 -17 115 12 29 19 61 18 70 -3 10
-7 5 -12 -13z"/>
<path d="M6515 5478 c-31 -80 -59 -95 -99 -55 l-23 23 -61 -75 c-34 -42 -78
-95 -98 -118 -36 -43 -36 -43 -12 -43 44 0 49 -18 39 -121 -6 -52 -12 -135
-14 -184 l-4 -91 101 -51 c205 -104 313 -130 331 -81 3 7 6 81 7 163 l3 150
61 105 c144 245 148 260 84 279 -32 9 -48 9 -74 0 -61 -22 -114 9 -88 52 7 10
12 21 12 24 0 7 -121 65 -136 65 -6 0 -19 -19 -29 -42z"/>
<path d="M6937 5205 c-9 -19 -15 -35 -12 -35 7 0 37 61 33 66 -3 2 -12 -12
-21 -31z"/>
<path d="M6150 5143 c-8 -17 -14 -74 -16 -143 l-2 -115 8 105 c5 58 13 120 19
139 13 43 9 50 -9 14z"/>
<path d="M7466 5112 c-4 -12 -20 -28 -36 -35 -34 -14 -154 -164 -182 -225 -23
-51 -34 -168 -23 -238 4 -27 10 -42 13 -34 3 8 13 26 22 40 10 15 19 51 22 87
3 47 10 69 26 86 12 13 22 26 22 30 0 3 19 34 43 67 23 34 49 73 58 88 22 37
52 129 46 145 -2 6 -7 2 -11 -11z"/>
<path d="M7596 5030 c-11 -19 -27 -46 -36 -60 -66 -95 -135 -218 -155 -276
-38 -110 -23 -204 31 -204 17 0 17 15 -2 133 -7 40 23 111 101 242 63 107 86
156 83 178 -3 19 -6 18 -22 -13z"/>
<path d="M7145 5000 c-25 -22 -52 -41 -58 -42 -7 0 -16 -2 -22 -3 -5 -2 -14
-3 -20 -4 -5 -1 -3 -6 5 -11 12 -8 12 -10 1 -10 -11 0 -11 -3 0 -17 12 -14 12
-15 1 -9 -11 7 -12 4 -3 -13 8 -13 10 -67 6 -160 l-5 -139 24 -4 25 -5 3 136
3 136 58 87 c31 47 57 89 57 92 0 17 -34 2 -75 -34z"/>
<path d="M5220 5003 c47 -20 125 -44 114 -34 -5 4 -32 17 -61 29 -59 25 -109
29 -53 5z"/>
<path d="M5102 4993 c-5 -10 -17 -41 -25 -70 -14 -46 -14 -52 0 -57 27 -11 54
-6 81 13 31 21 103 34 180 32 28 -1 52 1 52 3 0 2 -37 16 -82 30 -46 15 -96
33 -113 41 -57 26 -83 28 -93 8z"/>
<path d="M5350 4960 c0 -7 77 -35 150 -54 47 -13 -2 11 -77 37 -40 14 -73 22
-73 17z"/>
<path d="M9013 4886 c-4 -7 -14 -15 -21 -17 -9 -3 -6 -13 10 -36 15 -21 29
-31 40 -27 9 3 19 0 23 -6 3 -5 14 -10 23 -10 10 0 33 -13 52 -28 29 -24 54
-32 145 -47 95 -15 152 -35 190 -65 6 -4 33 -15 61 -23 27 -8 73 -25 101 -37
28 -12 60 -20 70 -17 13 3 8 8 -22 22 -22 9 -42 20 -45 24 -7 10 -284 145
-292 143 -5 -1 -8 3 -8 8 0 6 -5 10 -10 10 -6 0 -67 27 -135 60 -125 61 -167
71 -182 46z"/>
<path d="M8031 4883 c-34 -7 -55 -34 -106 -136 -43 -86 -43 -88 -27 -117 20
-34 30 -28 62 32 12 23 37 60 55 82 25 30 36 56 41 94 3 28 5 51 3 51 -2 -1
-15 -4 -28 -6z"/>
<path d="M5605 4870 c27 -12 43 -12 25 0 -8 5 -22 9 -30 9 -10 0 -8 -3 5 -9z"/>
<path d="M5657 4861 c4 -4 26 -13 48 -18 43 -12 137 -26 120 -18 -21 10 -177
43 -168 36z"/>
<path d="M6855 4847 c-14 -17 -12 -88 3 -114 9 -17 10 -23 1 -23 -8 0 -9 -4 0
-13 6 -8 9 -16 6 -19 -10 -9 20 -27 33 -20 6 4 14 31 18 60 5 45 2 58 -20 97
-30 51 -28 48 -41 32z"/>
<path d="M7653 4814 c-19 -27 -53 -89 -53 -96 0 -2 11 -4 24 -3 17 0 35 13 55
40 27 35 43 70 24 51 -4 -3 -12 3 -18 15 -12 21 -12 21 -32 -7z"/>
<path d="M2374 4821 c3 -5 15 -7 26 -4 28 7 25 13 -6 13 -14 0 -23 -4 -20 -9z"/>
<path d="M6785 4790 c0 -22 5 -40 10 -39 6 1 9 6 7 11 -1 6 3 16 9 24 8 10 8
14 0 14 -6 0 -11 7 -11 15 0 8 -3 15 -7 15 -5 0 -8 -18 -8 -40z"/>
<path d="M5888 4803 c7 -3 16 -2 19 1 4 3 -2 6 -13 5 -11 0 -14 -3 -6 -6z"/>
<path d="M8172 4759 c-18 -16 -30 -29 -28 -29 3 0 -9 -26 -25 -57 -33 -67 -36
-83 -11 -83 29 -1 55 -27 49 -50 -4 -15 3 -31 22 -51 26 -27 30 -28 81 -20 60
10 69 8 120 -27 43 -29 48 -41 49 -117 2 -88 1 -88 124 -79 104 7 106 7 116
35 14 40 52 62 101 56 22 -2 48 -11 58 -19 24 -21 105 -22 150 -2 37 17 45 20
70 22 8 1 10 7 5 15 -9 14 -10 19 -12 51 -2 36 -47 84 -92 97 -21 7 -39 16
-39 21 0 5 -4 7 -9 4 -11 -7 -61 50 -61 69 0 7 -17 19 -37 26 -21 7 -54 21
-74 31 -54 28 -76 32 -161 29 -51 -2 -88 3 -110 12 -47 21 -77 27 -84 15 -4
-5 -23 -7 -48 -3 -22 4 -51 8 -64 8 -17 1 -25 8 -29 29 -9 45 -24 50 -61 17z"/>
<path d="M6087 4741 c31 -20 73 -25 73 -9 0 10 -12 14 -65 23 l-40 6 32 -20z"/>
<path d="M6224 4703 c9 -18 16 -38 16 -46 0 -8 6 -27 14 -41 11 -22 15 -24 20
-10 3 9 2 22 -4 29 -7 8 -7 15 -1 19 5 3 11 2 13 -4 2 -5 9 -6 17 -1 11 7 7
13 -15 27 -16 10 -40 27 -53 38 l-24 21 17 -32z"/>
<path d="M6081 4652 c-16 -85 -22 -211 -11 -233 6 -10 37 -37 70 -59 l59 -40
5 43 c10 97 8 229 -5 242 -5 5 -9 28 -9 51 0 42 -23 68 -34 38 -3 -8 -11 -14
-17 -14 -8 0 -8 4 -1 13 8 9 3 12 -18 14 -26 2 -28 -1 -39 -55z"/>
<path d="M6341 4626 c-7 -8 -10 -20 -6 -26 4 -6 0 -19 -8 -28 -8 -9 -17 -37
-20 -62 -3 -25 -10 -63 -16 -85 -6 -22 -14 -64 -17 -94 l-6 -54 110 -106 c60
-58 113 -117 117 -131 4 -14 21 -41 37 -60 26 -33 87 -196 103 -280 12 -66 15
-70 45 -70 16 0 32 -5 35 -11 4 -6 13 -8 21 -5 19 7 18 -8 -1 -24 -12 -10 -20
-9 -40 4 -14 9 -30 14 -35 11 -14 -8 0 -35 15 -29 7 3 16 0 20 -5 3 -6 11 -8
17 -5 7 4 8 2 4 -5 -4 -7 -17 -11 -29 -9 -17 2 -23 -3 -25 -24 -2 -19 -9 -28
-21 -28 -10 0 -24 -7 -31 -15 -7 -8 -23 -15 -36 -15 -36 0 -74 -21 -74 -42 0
-10 8 -45 17 -79 13 -48 20 -58 32 -53 9 4 27 8 41 8 14 0 31 7 39 14 18 17
66 12 66 -8 0 -8 -7 -14 -17 -12 -9 1 -19 -2 -23 -8 -4 -6 6 -10 24 -10 23 0
31 -5 31 -17 0 -15 -9 -18 -53 -17 -28 0 -65 4 -80 8 -15 5 -30 6 -33 4 -7 -8
39 -182 50 -190 6 -4 32 -6 58 -5 40 2 45 4 32 14 -14 10 -13 12 5 18 12 3 21
12 21 20 0 7 7 16 16 19 13 5 14 3 7 -6 -21 -27 -22 -64 -3 -122 11 -32 20
-73 20 -90 0 -30 -2 -31 -43 -31 -23 0 -53 6 -65 14 -22 11 -23 11 -18 -6 10
-35 27 -118 36 -178 5 -33 16 -96 24 -140 9 -44 16 -100 16 -125 0 -59 11 -76
38 -61 31 16 65 14 59 -4 -4 -8 -2 -17 3 -20 6 -4 10 14 10 42 1 44 2 47 15
29 8 -11 15 -15 15 -10 0 6 -7 19 -15 30 -18 24 -20 58 -2 50 6 -3 20 -9 30
-12 9 -4 17 -13 17 -21 0 -7 15 -22 33 -33 47 -28 129 -133 121 -156 -5 -18
-5 -18 6 -1 10 15 7 24 -17 53 -15 19 -38 49 -51 66 -12 17 -36 40 -52 50 -17
10 -30 24 -30 32 0 7 -10 20 -22 29 l-23 15 27 -5 c17 -3 28 -12 30 -26 2 -11
19 -29 38 -40 19 -10 36 -23 38 -28 2 -5 23 -33 48 -62 27 -33 44 -64 44 -80
0 -14 4 -28 9 -31 5 -3 21 -45 36 -93 30 -96 36 -204 12 -232 -42 -51 -50
-107 -26 -172 11 -30 22 -60 24 -67 6 -17 55 14 55 34 0 8 7 17 15 20 8 4 15
15 15 27 0 11 7 28 16 38 15 16 38 145 28 160 -2 4 3 12 11 19 9 7 13 20 10
30 -5 15 -12 76 -18 150 -1 14 -12 47 -25 74 -12 27 -22 54 -22 60 0 6 -9 22
-20 36 -11 14 -20 37 -20 51 0 14 -9 34 -20 44 -11 10 -20 25 -20 34 0 9 -10
26 -22 38 -116 112 -198 196 -195 200 2 2 19 -11 38 -29 19 -17 41 -33 50 -35
31 -5 69 -23 69 -32 0 -5 21 -31 47 -57 25 -27 42 -40 38 -29 -5 11 -10 45
-11 75 -1 30 -5 62 -8 70 -4 9 -2 51 2 95 5 44 6 81 2 83 -5 2 -5 12 -2 24 4
15 2 19 -7 14 -7 -4 -11 -17 -9 -29 2 -15 -3 -23 -16 -25 -15 -3 -17 0 -12 14
4 10 1 21 -6 27 -9 6 -8 7 4 3 12 -3 22 7 38 39 25 51 18 93 -17 110 -16 8
-19 15 -12 28 13 22 30 22 22 1 -6 -16 15 -37 29 -28 4 3 8 19 8 36 0 16 6 42
14 56 28 54 43 98 42 117 -2 18 -32 73 -47 85 -8 7 -29 69 -29 86 0 8 5 14 10
14 6 0 10 -12 10 -26 0 -14 4 -23 10 -19 6 3 10 -1 10 -9 0 -9 5 -16 10 -16 6
0 10 -4 10 -9 0 -5 5 -22 10 -37 10 -26 11 -26 30 -9 11 10 20 28 20 39 0 12
7 34 15 49 18 35 18 198 -1 173 -8 -12 -13 -13 -22 -4 -19 19 -14 38 9 38 15
0 19 5 15 18 -10 35 -49 178 -53 200 -3 12 -9 25 -14 28 -5 3 -9 17 -9 30 0
35 -22 25 -32 -14 -7 -25 -2 -45 23 -99 31 -69 44 -123 30 -123 -4 0 -18 9
-31 20 -13 11 -33 22 -44 25 -33 6 -89 16 -116 19 -14 2 -29 4 -35 6 -5 1 -20
1 -33 0 -12 -1 -25 6 -28 14 -3 9 -15 16 -25 16 -12 0 -19 7 -19 20 0 26 4 25
46 -6 27 -21 37 -24 48 -15 10 8 16 9 21 1 3 -5 14 -10 23 -9 14 0 14 2 2 6
-8 3 -18 11 -22 16 -4 7 -12 6 -22 -2 -13 -11 -21 -9 -48 14 -18 15 -37 34
-41 41 -4 8 -17 14 -27 14 -10 0 -21 4 -24 8 -3 5 -27 9 -54 10 -53 1 -120 38
-171 96 -14 15 -42 46 -62 67 -20 21 -39 49 -42 62 -3 12 -17 51 -32 86 -23
54 -26 73 -21 119 4 35 2 59 -5 68 -9 11 -8 18 1 29 6 8 13 24 15 37 10 69 14
88 26 129 7 24 16 49 20 55 6 7 -17 18 -64 33 -40 13 -77 26 -83 28 -6 2 -16
-3 -23 -11z m503 -995 c3 -5 -1 -12 -10 -15 -22 -9 -24 -8 -24 9 0 16 25 21
34 6z m-41 -96 c-1 -11 2 -22 6 -25 4 -3 11 -25 15 -50 4 -24 5 -42 2 -39 -21
21 -59 89 -63 112 -4 25 -2 28 19 25 16 -2 22 -9 21 -23z m187 9 c30 -1 75 -7
100 -12 25 -6 69 -15 99 -21 55 -11 81 -25 81 -43 0 -6 -11 -7 -25 -4 -14 4
-34 2 -45 -4 -12 -6 -20 -7 -20 -1 0 12 -38 20 -113 26 -32 2 -63 7 -70 12 -6
4 -22 6 -34 4 -13 -1 -23 2 -23 7 0 5 -12 7 -27 4 -18 -3 -30 1 -40 13 -22 30
-16 38 25 30 20 -4 62 -9 92 -11z m145 -94 c0 -10 -8 -14 -23 -12 -13 1 -33
-5 -45 -13 -25 -17 -50 -20 -45 -4 2 6 7 10 11 10 4 0 21 8 39 19 38 22 63 22
63 0z m65 -20 c0 -5 -5 -10 -11 -10 -5 0 -7 5 -4 10 3 6 8 10 11 10 2 0 4 -4
4 -10z m-252 -122 c-2 -5 -8 -9 -13 -9 -5 0 -11 4 -13 9 -1 5 4 9 13 9 9 0 14
-4 13 -9z m147 -18 c-3 -5 -13 -6 -21 -3 -12 4 -13 8 -3 14 15 9 32 2 24 -11z
m7 -87 c-3 -26 -9 -33 -26 -33 -17 0 -18 2 -6 10 13 8 13 11 1 19 -12 7 -12
11 0 23 22 25 35 17 31 -19z m10 -55 c-8 -8 -9 -4 -5 13 4 13 8 18 11 10 2 -7
-1 -18 -6 -23z m-347 12 c-3 -5 -13 -10 -21 -10 -8 0 -12 5 -9 10 3 6 13 10
21 10 8 0 12 -4 9 -10z m90 -32 c-4 -24 -16 -52 -26 -64 -11 -11 -18 -31 -17
-44 2 -15 -3 -25 -12 -27 -25 -6 -24 70 1 93 10 9 19 23 19 31 0 7 7 16 15 19
8 4 15 12 15 20 0 8 3 14 6 14 3 0 3 -19 -1 -42z m-195 -38 c0 -5 -15 -9 -32
-9 l-33 1 30 8 c17 4 31 8 33 9 1 0 2 -3 2 -9z m458 -108 c2 -6 -5 -9 -14 -8
-10 2 -20 8 -22 14 -2 6 5 9 14 8 10 -2 20 -8 22 -14z m-71 -224 c-3 -8 -6 -5
-6 6 -1 11 2 17 5 13 3 -3 4 -12 1 -19z m-7 -58 c0 -5 -5 -10 -11 -10 -5 0 -7
5 -4 10 3 6 8 10 11 10 2 0 4 -4 4 -10z"/>
<path d="M6615 4581 c-3 -6 2 -14 12 -18 47 -16 122 -53 128 -63 8 -13 85 -53
91 -47 4 3 -33 30 -142 104 -40 28 -80 38 -89 24z"/>
<path d="M5880 4520 c0 -5 7 -7 15 -4 8 4 15 8 15 10 0 2 -7 4 -15 4 -8 0 -15
-4 -15 -10z"/>
<path d="M9805 4520 c-3 -5 -1 -10 4 -10 6 0 11 5 11 10 0 6 -2 10 -4 10 -3 0
-8 -4 -11 -10z"/>
<path d="M5960 4500 c0 -5 -8 -7 -17 -3 -26 9 -13 -2 23 -19 30 -15 31 -15 20
9 -11 23 -26 31 -26 13z"/>
<path d="M9184 4355 c-52 -24 -74 -30 -88 -23 -14 8 -17 7 -10 -4 5 -7 16 -33
24 -58 13 -37 20 -45 50 -53 19 -5 43 -16 53 -25 18 -16 20 -15 33 3 17 23 44
55 91 108 18 20 33 41 33 45 0 8 -47 25 -96 35 -12 3 -53 -10 -90 -28z"/>
<path d="M2675 4369 c-10 -15 3 -25 16 -12 7 7 7 13 1 17 -6 3 -14 1 -17 -5z"/>
<path d="M6913 4289 c3 -24 16 -53 30 -68 13 -14 36 -47 51 -73 15 -27 33 -48
40 -48 7 0 19 -21 26 -47 21 -78 51 -153 60 -153 5 0 14 9 20 21 9 16 5 36
-19 100 -35 92 -56 126 -66 110 -9 -16 -25 -3 -25 20 0 42 -86 179 -112 179
-7 0 -9 -16 -5 -41z"/>
<path d="M4600 4171 c0 -8 41 -23 47 -17 2 1 -8 8 -22 14 -14 6 -25 8 -25 3z"/>
<path d="M6510 4111 c16 -31 32 -36 18 -7 -6 14 -15 26 -20 26 -5 0 -4 -9 2
-19z"/>
<path d="M6380 4058 c31 -86 89 -279 101 -335 10 -49 11 -51 28 -35 10 9 16
21 13 26 -3 5 1 7 9 4 10 -4 15 1 16 13 1 11 -2 17 -8 14 -13 -9 -11 9 4 24
10 10 9 12 -3 9 -8 -2 -14 3 -12 11 4 18 -18 42 -32 35 -6 -3 0 4 14 15 23 19
24 21 5 22 -11 1 -24 1 -29 0 -5 -1 -3 6 5 15 10 12 11 18 3 21 -7 2 -10 13
-7 24 3 10 1 25 -5 32 -5 6 -13 27 -17 45 -6 30 -10 33 -32 27 -17 -4 -22 -2
-18 5 7 11 -34 80 -47 80 -4 0 1 -24 12 -52z"/>
<path d="M4756 4091 c-3 -4 6 -6 19 -3 14 2 25 6 25 8 0 8 -39 4 -44 -5z"/>
<path d="M9745 4079 c-4 -6 -5 -12 -2 -15 2 -3 7 2 10 11 7 17 1 20 -8 4z"/>
<path d="M9770 4059 c0 -5 5 -7 10 -4 6 3 10 8 10 11 0 2 -4 4 -10 4 -5 0 -10
-5 -10 -11z"/>
<path d="M6530 4052 c0 -10 52 -74 95 -117 38 -37 120 -83 160 -90 22 -3 51
-8 65 -11 l25 -5 -22 16 c-13 9 -43 17 -67 18 -67 4 -122 43 -218 157 -21 24
-38 39 -38 32z"/>
<path d="M4705 4030 c-3 -5 3 -10 14 -10 11 0 23 5 26 10 3 6 -3 10 -14 10
-11 0 -23 -4 -26 -10z"/>
<path d="M10160 3982 c-9 -4 -15 -18 -15 -32 0 -26 2 -26 73 -18 15 2 16 30 0
46 -13 13 -34 14 -58 4z"/>
<path d="M8032 3873 c-49 -37 -62 -52 -59 -68 2 -11 18 -69 34 -130 17 -60 40
-164 52 -230 12 -66 24 -128 27 -137 5 -18 34 -26 34 -10 0 4 14 16 30 26 17
9 42 36 56 58 15 23 40 46 60 54 39 16 39 15 19 80 -8 27 -15 59 -15 72 0 25
-21 86 -70 202 -30 72 -72 130 -94 130 -6 0 -39 -22 -74 -47z"/>
<path d="M7110 3710 c-9 -6 -10 -10 -3 -10 6 0 15 5 18 10 8 12 4 12 -15 0z"/>
<path d="M6528 3554 c-39 -21 -35 -28 5 -8 37 19 44 24 31 24 -5 -1 -21 -8
-36 -16z"/>
<path d="M9970 3543 c1 -5 7 -19 15 -33 8 -14 14 -36 15 -50 0 -24 85 -274
100 -295 9 -12 45 -127 55 -173 7 -35 55 -92 78 -92 7 0 23 -10 35 -23 27 -28
29 -76 5 -120 -22 -42 -21 -147 2 -207 26 -69 45 -168 45 -240 0 -43 7 -80 20
-108 10 -23 22 -59 26 -80 4 -20 8 -46 10 -57 5 -25 41 -75 68 -95 12 -8 32
-26 46 -41 38 -39 61 -43 111 -17 24 13 51 23 59 23 8 0 20 3 25 8 48 37 68
57 60 57 -5 0 -5 4 2 8 17 11 26 102 9 102 -13 0 -15 27 -2 48 4 6 3 12 -3 12
-12 0 -9 15 17 70 12 25 22 57 22 72 0 15 5 39 11 55 6 15 12 57 14 93 3 58
-1 73 -33 137 -19 40 -39 70 -42 68 -4 -3 -15 4 -25 15 -10 11 -35 25 -56 32
-21 6 -48 22 -60 34 -29 31 -40 30 -64 -3 -11 -14 -25 -32 -32 -38 -7 -7 -10
-15 -7 -18 3 -3 -4 -8 -15 -12 -12 -3 -21 -11 -21 -16 0 -11 -37 -6 -49 7 -5
5 -11 25 -14 44 -4 31 -13 73 -32 158 -4 18 -2 22 7 16 10 -6 10 -4 0 9 -8 9
-11 25 -7 37 4 13 2 20 -7 20 -8 0 -9 3 -3 8 6 4 11 20 13 36 2 17 16 45 32
63 16 18 34 50 40 72 14 52 11 139 -6 176 -12 27 -62 65 -84 65 -4 0 -25 8
-46 17 -22 9 -42 16 -46 15 -5 -1 -8 3 -8 8 0 5 -3 9 -7 9 -5 -1 -10 0 -13 1
-3 1 -13 3 -22 5 -48 9 -90 29 -108 52 -22 28 -84 65 -94 56 -3 -4 -6 -1 -6 5
0 7 -7 12 -15 12 -8 0 -15 -3 -15 -7z"/>
<path d="M6580 3513 c-19 -9 -45 -20 -57 -26 -13 -6 -23 -14 -23 -19 0 -5 9
-4 19 2 11 5 29 10 40 10 11 0 24 6 28 14 5 8 19 19 33 25 14 5 18 10 10 10
-8 0 -31 -7 -50 -16z"/>
<path d="M3750 3431 c0 -6 4 -11 9 -11 14 0 21 -44 8 -52 -8 -5 -5 -8 9 -8 36
0 37 44 2 64 -16 10 -28 13 -28 7z"/>
<path d="M11106 3405 c-9 -25 2 -31 164 -85 213 -71 238 -88 377 -243 29 -32
57 -56 62 -53 18 12 76 -60 100 -125 14 -35 28 -68 32 -74 8 -12 46 -164 55
-225 4 -25 11 -53 16 -63 5 -10 11 -28 14 -40 4 -24 30 -105 48 -149 6 -16 14
-28 18 -28 5 0 8 -6 8 -12 0 -7 18 -41 40 -76 22 -34 40 -66 40 -71 0 -7 59
-101 70 -111 10 -9 44 -65 46 -75 11 -61 -6 -106 -44 -122 -209 -88 -204 -85
-219 -121 -23 -56 -13 -158 31 -315 16 -58 15 -142 -2 -217 -5 -19 -5 -48 -1
-65 7 -23 3 -40 -16 -77 -14 -26 -25 -54 -25 -62 0 -7 -11 -21 -24 -29 -13 -9
-29 -22 -37 -29 -29 -28 -102 -57 -119 -48 -10 5 -46 12 -81 15 -130 12 -153
16 -211 35 -33 11 -65 17 -70 14 -10 -6 -7 -91 4 -109 7 -12 16 -63 23 -130 3
-27 7 -61 10 -75 2 -14 7 -52 9 -85 3 -33 8 -94 12 -135 7 -72 11 -174 13
-342 l1 -78 671 0 c669 0 672 0 690 21 10 11 22 18 28 15 5 -3 12 0 14 6 4 10
6 10 6 0 1 -7 6 -10 11 -7 6 3 10 2 10 -2 0 -5 12 -10 27 -11 15 -1 32 -7 37
-12 13 -13 163 -13 170 -1 4 5 -5 8 -19 7 -15 -2 -22 1 -18 7 4 6 0 8 -8 5
-10 -4 -20 4 -28 23 -7 16 -17 27 -22 23 -14 -8 -11 9 7 34 8 12 20 20 25 17
5 -3 6 1 3 9 -4 11 0 16 15 16 26 0 26 11 0 52 -12 18 -19 25 -16 16 5 -16
-17 -34 -37 -29 -4 1 -13 -5 -20 -14 -11 -16 -46 -12 -46 5 0 4 -12 5 -27 2
-21 -4 -25 -2 -20 11 6 16 -8 31 -28 32 -5 0 -9 8 -7 17 1 9 -3 20 -9 24 -8 4
-9 3 -5 -4 13 -22 -2 -12 -16 11 -18 27 -35 81 -19 57 9 -12 11 -10 11 13 0
15 4 35 9 45 5 9 15 31 21 49 7 19 17 30 25 27 7 -3 16 0 21 7 5 8 3 10 -7 4
-8 -5 -6 0 4 12 9 11 15 27 12 35 -3 8 1 21 10 28 8 7 15 26 15 42 0 16 7 43
16 59 8 17 13 37 10 45 -3 9 -1 12 4 9 9 -5 11 -1 10 20 0 3 6 18 13 33 17 32
32 135 17 112 -7 -11 -8 -8 -6 13 1 15 5 30 8 33 4 3 0 20 -7 39 -8 18 -12 35
-9 38 3 3 7 11 8 19 5 26 30 103 36 108 7 7 47 91 55 118 3 12 11 22 16 22 5
0 9 289 9 740 0 509 -3 740 -10 740 -6 0 -28 8 -49 18 -29 14 -40 16 -48 6 -7
-6 -9 -15 -6 -18 4 -3 2 -6 -4 -6 -15 0 -45 -79 -36 -93 4 -7 9 -32 10 -57 9
-136 16 -193 23 -200 9 -9 28 -69 23 -74 -5 -5 -15 -211 -15 -306 1 -30 -3
-72 -8 -92 -4 -21 -4 -36 0 -33 4 2 7 -9 6 -24 -1 -21 -4 -27 -13 -20 -7 7
-14 6 -19 -2 -4 -8 -3 -9 4 -5 7 4 12 1 12 -8 0 -14 -11 -20 -31 -18 -4 1 -4
-8 -1 -20 3 -14 1 -19 -6 -14 -8 4 -10 2 -6 -8 3 -8 13 -12 22 -9 10 3 13 1 7
-4 -15 -12 -36 -53 -28 -52 22 4 21 -4 -4 -28 -28 -28 -33 -53 -18 -110 3 -14
1 -23 -6 -23 -8 0 -8 -4 0 -14 10 -11 7 -19 -10 -35 -25 -23 -44 -27 -55 -9
-4 7 -3 8 4 4 8 -4 10 -2 6 8 -3 9 -12 12 -22 9 -11 -5 -14 -2 -9 10 5 13 1
17 -15 17 -16 0 -18 3 -9 14 9 10 8 16 -3 26 -9 6 -20 9 -25 6 -5 -4 -12 -2
-15 3 -6 10 28 53 36 45 3 -2 3 6 1 19 -3 14 1 28 8 33 20 12 68 12 63 0 -3
-7 6 -13 20 -14 14 -1 27 5 30 15 5 13 4 14 -8 4 -9 -7 -17 -8 -20 -2 -3 5 0
12 6 14 9 4 10 8 2 14 -17 13 -24 41 -11 47 7 2 4 5 -5 5 -10 1 -18 9 -18 19
0 14 -2 14 -9 3 -13 -20 -34 -1 -61 54 -12 25 -39 57 -60 73 -33 24 -37 30
-27 47 12 22 10 95 -3 109 -5 5 -6 15 -3 24 4 9 2 13 -4 9 -6 -4 -13 12 -17
43 -4 28 -10 50 -15 50 -16 0 -37 56 -43 115 -1 17 -11 39 -21 50 -9 10 -15
25 -13 32 3 7 1 13 -4 13 -5 0 -3 15 4 32 16 39 11 56 -22 84 -22 19 -24 27
-18 67 6 41 5 46 -29 80 -22 22 -34 41 -29 48 4 8 3 9 -5 5 -6 -4 -14 0 -17 8
-3 9 -14 16 -25 16 -49 0 -94 48 -75 79 4 5 -3 15 -14 21 -11 6 -20 15 -20 21
0 5 -9 19 -20 31 -11 12 -20 28 -20 35 0 7 -4 13 -10 13 -5 0 -10 6 -10 14 0
8 -8 21 -19 28 -10 7 -25 27 -34 44 -21 41 -84 96 -154 136 -32 18 -60 33 -63
33 -9 1 -95 48 -130 71 -19 13 -67 34 -106 48 -69 23 -99 29 -199 41 -72 9
-247 35 -265 40 -8 2 -44 7 -80 10 -36 4 -67 8 -69 10 -2 3 -12 0 -22 -5 -12
-7 -19 -6 -21 2 -3 7 -7 4 -12 -7z m1654 -1760 c0 -8 -2 -15 -4 -15 -2 0 -6 7
-10 15 -3 8 -1 15 4 15 6 0 10 -7 10 -15z"/>
<path d="M3860 3386 c0 -9 7 -16 16 -16 9 0 14 5 12 12 -6 18 -28 21 -28 4z"/>
<path d="M7500 3340 c33 -26 52 -25 21 0 -13 11 -28 20 -35 20 -6 0 0 -9 14
-20z"/>
<path d="M7266 3281 c-10 -38 -15 -74 -12 -80 4 -5 2 -12 -4 -16 -19 -12 -57
-100 -65 -150 -17 -119 -27 -463 -13 -471 4 -2 10 -26 13 -52 4 -26 10 -56 15
-67 5 -11 11 -37 15 -58 8 -50 49 -129 74 -145 12 -7 21 -20 21 -29 0 -9 13
-31 29 -48 35 -36 91 -138 91 -165 0 -19 -1 -19 -20 -2 -12 9 -32 40 -45 68
-40 84 -69 74 -60 -21 2 -21 -2 -48 -8 -60 -12 -21 -13 -27 -20 -105 -3 -41
-25 -103 -48 -140 -5 -8 -12 -22 -15 -31 -3 -8 -18 -23 -34 -32 -21 -13 -28
-24 -26 -43 3 -25 57 -94 74 -94 14 0 58 -53 80 -95 12 -22 21 -34 22 -27 0
18 40 72 75 102 16 14 40 36 53 49 23 25 48 41 92 62 14 6 32 15 40 20 8 5 25
13 38 19 12 5 22 14 22 19 0 5 17 15 38 22 20 6 41 18 45 26 5 7 22 19 40 26
17 7 27 16 21 20 -6 3 -23 -1 -38 -9 -39 -20 -95 -18 -141 6 -22 11 -47 20
-56 20 -24 0 -101 66 -118 101 -16 33 -5 55 13 25 22 -38 81 -86 106 -86 14 0
33 -7 43 -15 27 -20 95 -29 112 -15 9 8 44 11 103 8 l89 -4 -24 56 c-60 135
-58 134 -127 105 -26 -11 -42 -13 -56 -5 -10 5 -30 10 -43 10 -25 0 -55 24
-40 32 4 3 3 3 -4 2 -7 -2 -29 17 -48 41 -20 24 -46 45 -58 47 -12 2 -23 12
-25 23 -2 11 -12 29 -22 40 -10 11 -32 47 -50 80 -22 42 -26 53 -11 36 28 -31
27 -14 -3 29 -13 19 -26 58 -31 85 -4 28 -12 59 -18 70 -15 26 -37 277 -26
291 5 6 8 35 7 65 -1 82 6 131 26 161 16 25 16 29 1 58 -10 20 -18 64 -20 113
-2 45 -6 89 -9 97 -3 8 -10 34 -16 58 -6 23 -14 42 -18 42 -5 0 -16 -31 -26
-69z"/>
<path d="M1398 3323 c7 -3 16 -2 19 1 4 3 -2 6 -13 5 -11 0 -14 -3 -6 -6z"/>
<path d="M1393 3288 c-27 -13 -32 -41 -6 -31 17 7 17 5 0 -21 -23 -35 -17 -58
8 -29 10 12 21 20 24 19 3 -2 7 14 8 35 3 42 0 44 -34 27z"/>
<path d="M7363 3159 c4 -13 10 -41 13 -62 7 -42 24 -60 24 -25 0 34 -19 96
-32 104 -8 5 -9 0 -5 -17z"/>
<path d="M1376 3131 c-7 -11 -4 -61 4 -61 3 0 11 5 18 12 9 9 12 9 12 0 0 -7
5 -12 10 -12 6 0 10 16 10 35 0 30 -3 35 -24 35 -14 0 -27 -4 -30 -9z"/>
<path d="M4120 3130 c-24 -8 -23 -8 8 -9 17 -1 32 4 32 9 0 11 -5 11 -40 0z"/>
<path d="M7518 3123 c-21 -9 -38 -22 -38 -31 0 -12 10 -14 55 -9 69 7 78 12
65 38 -12 22 -31 23 -82 2z"/>
<path d="M4123 3084 c-12 -13 -18 -24 -14 -24 10 0 45 39 40 44 -2 3 -14 -6
-26 -20z"/>
<path d="M8245 3060 c-3 -11 -22 -32 -41 -47 -33 -25 -35 -29 -29 -72 9 -71
86 -375 97 -386 7 -7 8 9 4 50 -21 207 -20 222 13 272 25 38 28 48 17 57 -17
14 -27 76 -12 76 6 0 3 7 -6 14 -20 15 -25 31 -6 20 7 -4 8 -3 4 5 -4 6 -12 8
-18 5 -7 -5 -9 -1 -5 9 3 10 2 17 -3 17 -5 0 -12 -9 -15 -20z"/>
<path d="M6600 3020 c0 -5 11 -10 24 -10 14 0 28 5 31 10 4 6 -7 10 -24 10
-17 0 -31 -4 -31 -10z"/>
<path d="M7404 2987 c3 -10 9 -36 12 -58 4 -21 10 -39 15 -39 11 0 0 59 -18
90 -8 14 -12 17 -9 7z"/>
<path d="M3985 2979 c-20 -9 -20 -9 1 -6 26 5 59 -18 48 -34 -7 -12 8 -10 51
7 18 7 19 6 5 -11 -14 -17 -14 -18 8 -6 12 6 27 9 33 5 7 -4 9 3 7 17 -4 30
-33 36 -60 12 -19 -17 -20 -17 -17 2 3 16 -2 20 -26 22 -16 1 -39 -2 -50 -8z"/>
<path d="M6315 2980 c3 -5 8 -10 11 -10 2 0 4 5 4 10 0 6 -5 10 -11 10 -5 0
-7 -4 -4 -10z"/>
<path d="M7625 2952 c-16 -11 -97 -133 -92 -138 10 -11 107 101 107 123 0 25
0 26 -15 15z"/>
<path d="M7361 2934 c0 -11 3 -14 6 -6 3 7 2 16 -1 19 -3 4 -6 -2 -5 -13z"/>
<path d="M6575 2860 c-10 -11 -32 -24 -49 -29 -21 -6 -24 -9 -11 -10 11 0 32
6 48 13 26 14 27 14 27 -9 0 -13 -10 -31 -22 -39 -12 -9 -19 -18 -16 -22 13
-13 58 45 58 75 0 38 -13 46 -35 21z"/>
<path d="M7446 2785 c4 -28 11 -54 17 -60 6 -7 7 7 3 40 -3 27 -11 54 -16 59
-7 7 -8 -6 -4 -39z"/>
<path d="M7336 2733 c-6 -14 -5 -15 5 -6 7 7 10 15 7 18 -3 3 -9 -2 -12 -12z"/>
<path d="M6601 2699 c-12 -13 -21 -17 -21 -11 0 20 -28 14 -70 -14 -41 -27
-49 -45 -11 -25 18 10 20 9 14 -6 -6 -16 -4 -16 15 1 19 17 22 17 22 3 0 -23
13 -21 39 7 15 15 29 22 43 18 16 -4 19 -1 16 18 -4 32 -22 35 -47 9z"/>
<path d="M6607 2663 c-4 -3 -7 -11 -7 -17 0 -6 5 -5 12 2 6 6 9 14 7 17 -3 3
-9 2 -12 -2z"/>
<path d="M7484 2562 c-4 -18 -10 -29 -15 -26 -11 6 -11 -13 0 -40 5 -14 10
-16 15 -8 4 7 4 17 1 22 -3 6 0 10 8 10 10 0 13 9 11 32 -5 43 -13 47 -20 10z"/>
<path d="M6810 2333 c0 -20 -51 -73 -71 -73 -5 0 -9 -7 -9 -15 0 -13 4 -14 23
-4 12 6 32 21 45 32 16 15 22 17 22 6 0 -8 -20 -27 -45 -44 -37 -25 -44 -34
-40 -55 2 -14 7 -43 11 -65 11 -69 16 -71 64 -28 35 33 43 47 47 86 5 45 -14
131 -37 167 -8 12 -10 11 -10 -7z"/>
<path d="M8408 2331 c-43 -9 -80 -21 -83 -29 -4 -11 18 -115 87 -405 11 -48
25 -90 30 -93 8 -5 117 37 168 66 22 12 16 47 -40 234 -27 93 -50 181 -50 197
0 42 -23 48 -112 30z"/>
<path d="M5575 2280 c3 -5 8 -10 11 -10 2 0 4 5 4 10 0 6 -5 10 -11 10 -5 0
-7 -4 -4 -10z"/>
<path d="M7590 2269 c0 -11 5 -17 10 -14 6 3 10 13 10 21 0 8 -4 14 -10 14 -5
0 -10 -9 -10 -21z"/>
<path d="M10972 2263 c-15 -35 -12 -73 5 -73 7 0 13 5 13 10 0 6 7 10 15 10
21 0 19 43 -4 64 -17 16 -19 15 -29 -11z"/>
<path d="M7030 2256 c0 -2 8 -10 18 -17 15 -13 16 -12 3 4 -13 16 -21 21 -21
13z"/>
<path d="M7430 2241 c0 -6 4 -13 10 -16 6 -3 7 1 4 9 -7 18 -14 21 -14 7z"/>
<path d="M7061 2212 c-1 -15 29 -112 35 -112 6 0 -8 64 -16 75 -4 6 -10 19
-13 30 -2 11 -5 14 -6 7z"/>
<path d="M7470 2185 c13 -14 26 -25 28 -25 3 0 -5 11 -18 25 -13 14 -26 25
-28 25 -3 0 5 -11 18 -25z"/>
<path d="M7502 2139 c4 -11 58 -33 58 -23 0 2 -14 11 -31 20 -23 11 -30 12
-27 3z"/>
<path d="M7102 2029 c-1 -45 -7 -71 -17 -79 -8 -7 -15 -20 -15 -29 0 -9 -6
-23 -12 -31 -11 -12 -10 -12 5 -1 9 7 17 18 17 24 0 6 7 18 15 28 12 12 15 34
12 85 l-3 69 -2 -66z"/>
<path d="M6840 2049 c0 -5 5 -7 10 -4 6 3 10 8 10 11 0 2 -4 4 -10 4 -5 0 -10
-5 -10 -11z"/>
<path d="M5526 1868 c-9 -242 -14 -324 -26 -438 -6 -52 -17 -255 -26 -450 -8
-195 -17 -399 -21 -452 -6 -95 -5 -98 16 -98 11 0 21 -5 21 -11 0 -6 -9 -9
-20 -6 -16 4 -21 -1 -25 -27 -9 -51 -11 -360 -2 -373 6 -9 45 -13 139 -13 120
0 130 1 123 17 -3 10 -9 32 -12 48 -4 17 -17 44 -30 61 -12 17 -23 39 -23 50
0 10 -16 37 -35 59 -20 22 -38 50 -42 62 -3 13 -14 28 -24 34 -24 13 -24 29
-1 29 20 0 52 -29 52 -48 0 -6 17 -27 38 -47 22 -20 44 -52 50 -74 7 -21 21
-46 31 -56 11 -9 25 -42 32 -71 7 -30 16 -54 21 -54 11 0 10 17 -4 39 -9 15
-8 24 5 45 14 21 15 29 5 45 -9 15 -9 23 0 33 6 8 14 40 18 71 4 31 13 62 20
68 8 6 14 20 14 30 0 10 4 20 9 23 4 3 11 28 15 55 4 28 13 56 20 64 8 7 26
37 40 65 15 29 31 52 36 52 6 0 10 7 10 16 0 8 15 21 34 29 23 10 36 23 38 37
2 12 14 28 28 35 13 6 28 21 32 33 9 25 35 37 50 22 9 -9 9 -18 1 -34 -6 -13
-14 -31 -16 -40 -3 -9 -16 -18 -29 -20 -13 -2 -24 -11 -26 -23 -6 -28 -21 -45
-42 -45 -9 0 -22 -11 -28 -25 -6 -14 -16 -25 -22 -25 -5 0 -10 -11 -10 -25 0
-14 -9 -30 -20 -37 -11 -7 -20 -18 -20 -25 0 -7 -4 -13 -9 -13 -6 0 -13 -21
-17 -47 -3 -27 -13 -56 -22 -65 -8 -10 -12 -18 -7 -18 4 0 0 -12 -10 -26 -9
-15 -18 -38 -20 -53 -2 -14 -6 -57 -10 -96 -4 -38 -11 -74 -15 -80 -4 -5 -5
-25 -3 -42 l5 -33 64 0 63 0 5 33 c2 17 4 41 5 52 0 55 23 183 41 231 11 30
38 74 60 96 22 23 40 50 40 60 0 19 46 55 57 44 3 -3 -1 -14 -10 -24 -21 -23
-22 -33 -2 -26 13 5 16 -6 16 -72 0 -77 6 -357 8 -381 2 -20 29 -15 41 7 14
26 40 26 40 0 0 -19 7 -20 245 -20 226 0 245 1 246 18 1 9 3 26 5 37 3 21 11
142 19 294 3 51 8 98 11 103 7 11 -47 182 -59 187 -14 5 -48 93 -49 124 -1 34
-12 34 -108 2 -97 -33 -120 -53 -136 -118 -7 -29 -13 -44 -13 -33 -1 14 -6 17
-23 12 -13 -3 -42 -6 -66 -6 -34 0 -48 -6 -69 -27 l-25 -28 7 42 c5 34 0 57
-29 130 -19 48 -38 100 -41 116 -4 15 -13 31 -20 35 -16 9 -35 44 -61 112 -11
30 -30 60 -41 65 -28 14 -103 92 -103 106 0 14 -40 70 -83 116 -24 25 -34 30
-44 21 -22 -18 -26 -2 -8 26 17 26 17 28 -11 68 l-29 42 -3 -30 c-2 -16 -10
-43 -18 -61 -7 -17 -14 -42 -14 -56 0 -13 -7 -30 -15 -37 -8 -7 -15 -21 -15
-31 0 -10 -9 -36 -21 -58 -11 -22 -22 -46 -24 -53 -10 -42 -20 -59 -41 -73
-13 -8 -24 -24 -24 -34 0 -10 -7 -21 -15 -25 -21 -8 -19 1 19 79 19 39 44 97
56 130 12 33 26 68 31 77 5 10 9 28 9 41 0 13 5 28 11 34 9 9 31 123 30 163 0
58 -18 121 -47 167 -40 62 -58 113 -78 223 -13 66 -46 150 -60 150 -2 0 -6
-82 -10 -182z m712 -1540 c-4 -29 -38 -38 -38 -10 0 22 8 32 27 32 9 0 13 -8
11 -22z"/>
<path d="M5886 2024 c-4 -10 -1 -21 5 -25 18 -11 40 1 37 20 -4 22 -34 26 -42
5z"/>
<path d="M7653 2003 c9 -2 23 -2 30 0 6 3 -1 5 -18 5 -16 0 -22 -2 -12 -5z"/>
<path d="M5830 1974 c0 -26 10 -30 28 -12 17 17 15 25 -8 31 -16 4 -20 0 -20
-19z"/>
<path d="M11256 1813 c-47 -25 -77 -64 -70 -93 3 -14 8 -36 11 -49 2 -14 13
-50 23 -82 21 -60 26 -174 7 -162 -5 3 -8 2 -4 -3 3 -5 -3 -35 -14 -67 -18
-52 -18 -59 -4 -73 8 -9 13 -20 9 -25 -3 -5 2 -12 10 -15 9 -3 16 -12 16 -20
0 -8 4 -14 10 -14 5 0 7 -6 4 -13 -5 -15 40 -80 50 -70 4 4 4 0 0 -10 -4 -12
-1 -17 11 -17 9 0 14 -4 11 -9 -3 -4 1 -17 9 -27 10 -12 13 -13 10 -4 -3 9 4
26 15 38 13 14 16 22 8 22 -9 0 -9 3 -2 8 19 12 3 182 -17 182 -6 0 -8 4 -5 9
4 5 1 22 -5 38 -12 31 -18 103 -24 273 -2 63 -4 127 -4 141 -1 14 -7 33 -13
42 -12 14 -16 14 -42 0z"/>
<path d="M7836 1740 c-22 -11 -44 -20 -50 -20 -6 0 -17 -9 -24 -20 -7 -12 -23
-20 -40 -20 -15 0 -32 -8 -38 -17 -6 -10 -37 -31 -68 -47 -31 -16 -56 -33 -56
-38 0 -4 -10 -8 -22 -8 -30 0 -45 -11 -49 -35 -3 -11 -13 -21 -24 -24 -39 -7
-129 -120 -111 -138 2 -3 39 15 83 40 43 24 117 65 165 90 161 87 358 219 358
240 0 5 -6 4 -13 -2 -10 -8 -19 -7 -33 4 -25 19 -31 18 -78 -5z"/>
<path d="M8290 1570 c0 -45 37 -88 54 -62 5 8 -40 82 -49 82 -3 0 -5 -9 -5
-20z"/>
<path d="M8558 1523 c-15 -2 -30 -12 -33 -23 -5 -16 30 -175 41 -188 8 -11 40
11 40 27 0 11 -4 17 -8 15 -4 -3 -8 0 -8 5 0 6 4 11 9 11 10 0 9 32 -1 40 -7
5 -8 25 -7 88 0 14 4 20 11 16 7 -4 8 -2 4 4 -4 7 -10 11 -14 11 -4 -1 -19 -4
-34 -6z"/>
<path d="M10580 1505 c5 -14 6 -25 2 -25 -4 0 -1 -4 5 -8 7 -4 14 -17 17 -27
9 -42 19 -65 28 -65 11 0 2 33 -28 100 -1 3 -5 15 -9 28 -4 12 -11 22 -16 22
-5 0 -4 -11 1 -25z"/>
<path d="M6960 1508 c0 -8 6 -34 14 -56 8 -23 12 -57 9 -79 -4 -34 -1 -45 24
-74 36 -42 55 -109 57 -213 2 -73 1 -79 -21 -89 -22 -10 -32 -27 -14 -27 4 0
18 -33 31 -72 12 -40 26 -77 30 -81 7 -8 80 7 144 30 36 13 38 13 27 -1 -16
-19 -8 -20 20 -5 11 5 17 14 14 18 -10 18 22 29 110 40 130 16 302 -16 326
-60 6 -12 21 -19 39 -19 19 0 30 -5 30 -13 0 -8 9 -24 20 -37 28 -33 80 -145
80 -174 0 -14 4 -28 10 -31 5 -3 7 -38 3 -86 l-6 -80 34 14 c26 10 35 20 37
43 2 16 10 36 19 46 8 9 13 30 11 50 -2 27 -7 33 -25 31 -25 -3 -30 16 -12 45
8 13 6 28 -6 62 -26 71 -26 90 -1 115 l23 23 -36 -5 -36 -4 32 16 c20 11 30
22 26 31 -3 8 -8 12 -12 9 -12 -7 -9 29 3 38 7 4 8 10 1 15 -15 11 -18 35 -4
26 9 -5 10 -2 6 9 -3 9 -2 19 3 22 7 4 7 13 0 24 -5 10 -7 21 -3 24 3 4 1 13
-5 20 -7 8 -9 17 -5 21 4 3 -9 4 -28 0 -30 -5 -32 -4 -17 9 16 12 14 14 -18
15 -34 1 -36 0 -31 -24 8 -42 -9 -13 -21 35 -9 38 -8 46 6 58 9 7 13 13 9 13
-5 0 -1 7 7 16 9 8 16 26 16 39 0 16 8 27 28 34 26 11 26 11 -8 6 -33 -4 -34
-4 -15 11 11 8 30 17 43 21 19 4 27 20 23 45 0 4 6 5 15 1 17 -6 43 23 44 50
0 9 -5 17 -11 17 -15 0 -150 -69 -170 -86 -8 -8 -19 -14 -23 -14 -5 0 -26 -14
-47 -31 -22 -17 -74 -44 -117 -61 -80 -30 -134 -71 -126 -93 3 -7 -4 -16 -15
-20 -12 -3 -25 -14 -31 -24 -20 -39 -106 -61 -168 -45 -21 6 -22 8 -6 25 16
17 15 20 -12 54 -29 36 -58 67 -102 108 -13 12 -34 42 -47 67 -13 25 -45 65
-70 90 -26 25 -60 65 -76 89 -16 25 -29 38 -29 29z m725 -423 c22 -8 50 -15
63 -15 25 0 103 -42 123 -66 19 -23 -5 -42 -28 -22 -30 26 -80 48 -110 48 -15
0 -55 9 -87 20 -41 14 -63 17 -71 10 -8 -7 -23 -5 -46 5 -19 9 -25 14 -13 12
12 -2 32 2 45 9 31 17 74 17 124 -1z m-472 -74 c27 -10 6 -24 -70 -44 -77 -21
-73 -21 -73 3 0 13 7 20 19 20 10 0 32 7 47 15 31 16 49 18 77 6z"/>
<path d="M8693 1505 c-3 -9 -3 -18 -1 -21 3 -3 8 4 11 16 6 23 -1 27 -10 5z"/>
<path d="M8700 1441 c0 -6 4 -13 10 -16 6 -3 7 1 4 9 -7 18 -14 21 -14 7z"/>
<path d="M8365 1428 c-11 -6 -30 -21 -43 -34 -24 -25 -24 -30 12 -201 2 -11 8
-42 11 -66 4 -25 14 -48 21 -51 20 -8 27 15 14 49 -6 16 -7 31 -2 34 10 7 10
107 0 116 -9 9 1 88 13 100 13 13 11 45 -3 46 -7 0 -4 4 7 9 13 6 15 9 5 9 -8
0 -24 -5 -35 -11z m12 -208 c-1 -12 -5 -16 -10 -11 -5 5 -6 14 -3 20 11 16 15
13 13 -9z"/>
<path d="M5942 1339 c-5 -11 -12 -19 -17 -17 -21 7 -15 -43 9 -79 14 -21 26
-43 26 -48 0 -6 14 -22 31 -34 l31 -23 -7 23 c-4 13 -13 35 -20 49 -18 37 -38
127 -30 140 3 5 1 10 -5 10 -6 0 -14 -9 -18 -21z"/>
<path d="M7960 1330 c0 -5 5 -10 11 -10 5 0 7 5 4 10 -3 6 -8 10 -11 10 -2 0
-4 -4 -4 -10z"/>
<path d="M4806 1138 c11 -22 13 -33 5 -36 -22 -7 -11 -19 14 -14 14 2 25 10
25 17 0 8 2 20 5 27 4 9 -4 19 -20 26 -41 19 -47 14 -29 -20z"/>
<path d="M7860 1120 c0 -5 5 -10 10 -10 6 0 10 5 10 10 0 6 -4 10 -10 10 -5 0
-10 -4 -10 -10z"/>
<path d="M4910 1105 c0 -10 7 -15 18 -13 21 4 19 22 -2 26 -10 2 -16 -3 -16
-13z"/>
<path d="M10512 1073 c-121 -41 -128 -50 -111 -131 6 -31 12 -61 11 -67 0 -5
-3 -39 -6 -74 -5 -52 -3 -68 11 -83 9 -10 20 -18 26 -18 13 0 69 41 63 47 -2
3 11 18 29 35 19 16 33 35 32 41 -1 7 3 11 10 10 8 -2 9 6 3 27 -7 23 -4 34
15 57 14 15 27 24 31 21 3 -4 13 -1 20 7 14 14 18 51 14 128 -3 47 -11 47
-148 0z"/>
<path d="M1590 960 c-8 -5 -30 -10 -47 -10 -18 0 -33 -4 -33 -9 0 -14 28 -21
61 -14 42 8 35 -16 -11 -38 -36 -18 -26 -35 12 -20 32 12 47 31 54 69 7 34 -6
41 -36 22z"/>
<path d="M3672 945 c6 -14 16 -25 22 -25 6 0 2 -7 -8 -15 -19 -15 -19 -15 1
-15 33 0 37 55 6 69 -33 15 -34 14 -21 -14z"/>
<path d="M3760 924 c0 -9 5 -14 12 -12 18 6 21 28 4 28 -9 0 -16 -7 -16 -16z"/>
<path d="M8870 855 c-54 -44 -87 -63 -147 -85 l-33 -12 0 -72 c0 -109 27 -271
61 -376 39 -118 55 -150 75 -150 9 0 47 20 85 45 38 24 86 53 107 64 21 11 55
37 75 57 44 45 46 71 17 167 -11 36 -22 78 -24 93 -2 16 -29 88 -61 159 -31
72 -59 136 -62 143 -9 22 -37 12 -93 -33z"/>
<path d="M10718 873 c-32 -16 -33 -21 -15 -66 13 -31 14 -148 3 -242 -3 -22
-7 -65 -10 -95 -3 -30 -10 -86 -16 -125 -15 -93 -28 -228 -29 -292 l-1 -53
130 0 130 0 1 63 c1 34 2 159 4 278 1 119 5 221 9 228 4 6 3 11 -3 11 -6 0 -7
11 -2 28 9 31 -21 148 -31 122 -5 -13 -7 -13 -7 1 -1 9 -10 28 -22 43 -11 14
-18 30 -15 34 7 12 -56 72 -80 76 -10 1 -31 -4 -46 -11z"/>
<path d="M8048 857 c-26 -12 -48 -26 -48 -30 0 -5 5 -5 12 -1 7 5 9 2 5 -9 -4
-11 -2 -14 9 -10 7 3 14 1 14 -5 0 -6 3 -18 7 -28 5 -13 3 -15 -7 -9 -9 5 -11
4 -6 -3 4 -7 3 -12 -2 -12 -5 0 -9 -7 -9 -16 0 -15 2 -15 13 1 7 9 17 14 23
10 8 -4 8 2 1 20 -12 33 -12 35 0 35 6 0 10 -8 10 -18 0 -10 6 -27 14 -37 12
-17 14 -11 21 49 4 38 3 72 -2 76 -4 5 -29 -1 -55 -13z"/>
<path d="M5140 854 l-45 -14 43 4 c49 5 56 -10 20 -44 -12 -11 -17 -20 -11
-20 15 0 40 32 47 63 7 30 9 30 -54 11z"/>
<path d="M7689 826 c14 -15 26 -26 28 -26 9 0 -24 40 -37 45 -8 4 -4 -5 9 -19z"/>
<path d="M1493 807 c-18 -6 -33 -13 -33 -16 1 -19 20 -33 39 -28 12 3 19 0 18
-7 -1 -6 7 -11 18 -11 11 0 23 -4 27 -10 4 -5 15 -1 27 9 12 11 21 14 21 8 0
-7 5 -12 10 -12 6 0 10 16 10 35 0 30 -3 35 -23 35 -13 0 -28 -5 -35 -12 -8
-8 -12 -8 -12 -1 0 16 -31 21 -67 10z"/>
<path d="M5062 701 c-11 -7 -11 -11 2 -24 9 -8 16 -20 16 -26 0 -15 13 -14 36
4 29 22 40 18 18 -7 l-19 -21 27 17 c20 13 27 14 31 4 3 -7 6 2 6 20 1 24 -3
32 -17 32 -10 0 -24 -6 -31 -12 -10 -11 -14 -10 -22 5 -11 19 -27 21 -47 8z"/>
<path d="M7432 678 c-7 -7 -30 -11 -52 -10 -22 2 -48 -2 -58 -7 -12 -6 -22 -7
-28 -1 -6 6 -24 3 -49 -10 -22 -11 -46 -20 -55 -20 -8 0 -23 -7 -34 -15 -18
-14 -18 -16 -1 -51 9 -20 18 -62 19 -93 3 -57 41 -146 85 -199 19 -21 22 -22
53 -8 18 8 26 15 16 15 -43 2 -17 37 40 55 17 6 22 3 22 -11 0 -11 -5 -24 -12
-31 -15 -15 -4 -15 50 1 24 7 43 16 42 20 -4 22 12 29 67 31 49 1 60 -1 51
-11 -8 -10 -6 -13 9 -13 12 0 30 16 46 40 27 42 26 51 -4 24 -15 -14 -19 -13
-37 11 -11 14 -23 26 -26 26 -19 -2 -18 2 3 8 15 4 28 18 34 36 6 17 15 33 21
37 8 5 7 8 -1 8 -7 0 -13 7 -13 15 0 9 -10 19 -22 24 l-21 8 24 16 23 17 -34
30 c-23 19 -46 29 -67 30 -19 0 -41 8 -53 20 -24 24 -23 23 -38 8z m-54 -41
c18 -14 15 -24 -9 -30 -17 -4 -19 -3 -10 6 16 16 14 32 -2 18 -8 -6 -16 -8
-20 -5 -3 3 -3 -5 -1 -18 5 -20 4 -21 -6 -5 -6 10 -9 24 -7 31 6 15 37 17 55
3z m82 4 c0 -5 -7 -14 -15 -21 -8 -7 -15 -10 -15 -7 0 3 -3 12 -6 21 -4 12 0
16 15 16 12 0 21 -4 21 -9z m-16 -56 c18 -14 18 -15 -8 -24 -14 -6 -26 -16
-26 -23 0 -9 -3 -9 -12 0 -7 7 -34 12 -60 12 -29 0 -48 4 -48 11 0 6 9 9 20 6
11 -3 23 -1 26 5 3 5 17 7 29 4 27 -7 57 2 49 15 -8 14 9 10 30 -6z m16 -109
c0 -3 -4 -8 -10 -11 -5 -3 -10 -1 -10 4 0 6 5 11 10 11 6 0 10 -2 10 -4z m-5
-80 c-18 -13 -20 -13 -24 2 -2 9 2 18 8 20 6 2 8 9 5 15 -4 7 1 4 12 -5 18
-17 18 -18 -1 -32z"/>
<path d="M4047 673 c-4 -3 -24 -10 -44 -14 l-38 -8 43 3 c31 3 42 0 42 -10 0
-19 -36 -54 -57 -54 -9 0 -14 -3 -10 -6 10 -11 47 7 61 29 28 44 30 87 3 60z"/>
<path d="M3915 510 l-30 -8 28 -1 c16 0 26 -5 22 -11 -3 -5 -1 -10 5 -10 7 0
10 -7 6 -15 -7 -19 11 -19 44 0 35 20 46 18 25 -5 -17 -19 -17 -19 9 -7 29 14
35 44 9 50 -10 2 -26 -3 -35 -11 -16 -13 -18 -13 -18 0 0 13 -25 33 -33 27 -1
-1 -15 -5 -32 -9z"/>
<path d="M7620 461 c0 -10 26 -9 36 2 4 4 -2 7 -14 7 -12 0 -22 -4 -22 -9z"/>
<path d="M13085 446 c0 -12 8 -33 17 -47 l17 -24 0 45 c0 44 0 45 -15 20 -13
-22 -14 -22 -9 -3 3 12 2 24 -3 26 -4 3 -8 -4 -7 -17z"/>
<path d="M6094 419 c-19 -22 -19 -22 4 -10 12 6 22 16 22 21 0 15 -5 12 -26
-11z"/>
<path d="M6045 370 c-3 -5 -2 -10 4 -10 5 0 13 5 16 10 3 6 2 10 -4 10 -5 0
-13 -4 -16 -10z"/>
<path d="M7525 320 c-4 -6 3 -10 14 -10 25 0 27 6 6 13 -8 4 -17 2 -20 -3z"/>
<path d="M13015 200 c3 -5 8 -10 11 -10 2 0 4 5 4 10 0 6 -5 10 -11 10 -5 0
-7 -4 -4 -10z"/>
<path d="M8020 164 c0 -9 -22 -25 -55 -39 -51 -23 -63 -36 -109 -112 -5 -10
13 -13 81 -13 l88 0 15 48 c11 35 13 58 6 90 -10 41 -26 58 -26 26z"/>
<path d="M10027 174 c-11 -12 -8 -43 6 -67 8 -12 15 -40 16 -62 1 -21 4 -41 6
-43 10 -11 31 26 30 53 -1 17 2 33 8 36 5 4 11 24 14 46 l4 39 -38 2 c-22 2
-42 -1 -46 -4z"/>
<path d="M8978 153 c-32 -16 -34 -25 -14 -42 8 -7 18 -25 21 -41 8 -38 58 -62
69 -33 7 17 -2 36 -14 28 -14 -8 -29 19 -26 48 2 15 -1 30 -6 33 -4 3 -6 10
-3 15 7 11 7 11 -27 -8z"/>
<path d="M6927 143 c-4 -3 -7 -37 -7 -75 0 -66 1 -68 25 -68 14 0 25 3 26 8 0
4 2 20 5 37 2 17 -4 47 -13 68 -16 37 -24 43 -36 30z"/>
<path d="M13030 99 c0 -5 5 -7 10 -4 6 3 10 8 10 11 0 2 -4 4 -10 4 -5 0 -10
-5 -10 -11z"/>
<path d="M7851 65 c-11 -19 -19 -35 -17 -35 2 0 16 16 30 35 15 19 23 35 17
35 -5 0 -18 -16 -30 -35z"/>
<path d="M9587 36 c-15 -14 -27 -28 -27 -31 0 -3 23 -5 51 -5 49 0 50 1 47 27
-4 37 -36 41 -71 9z"/>
<path d="M6999 28 c4 -13 17 -25 27 -27 17 -3 17 -2 3 20 -22 32 -41 37 -30 7z"/>
<path d="M10279 29 c-6 -13 -7 -19 -1 -15 6 3 12 0 15 -6 2 -7 4 -1 4 15 1 33
-3 34 -18 6z"/>
<path d="M9095 10 c3 -5 8 -10 11 -10 2 0 4 5 4 10 0 6 -5 10 -11 10 -5 0 -7
-4 -4 -10z"/>
<path d="M7423 3 c9 -2 23 -2 30 0 6 3 -1 5 -18 5 -16 0 -22 -2 -12 -5z"/>
<path d="M8613 3 c9 -2 25 -2 35 0 9 3 1 5 -18 5 -19 0 -27 -2 -17 -5z"/>
</g>
</svg>
